<?xml version="1.0" encoding="UTF-8"?><svg id="Camada_1" xmlns="http://www.w3.org/2000/svg" viewBox="0 0 105 105"><defs><style>.cls-1{fill:#007abe;}.cls-1,.cls-2,.cls-3{fill-rule:evenodd;}.cls-2{fill:none;stroke:#007abe;stroke-miterlimit:10;stroke-width:5px;}.cls-4,.cls-3{fill:#009e4d;}</style></defs><path class="cls-3" d="m55.07,50.44c-.19,2.41-.81,4.71-1.68,6.96-.08.2-.16.39-.35.56,0-.89.05-1.78,0-2.67-.15-2.59-.61-5.1-1.44-7.56-.78-2.28-1.87-4.37-3.42-6.21-.71-.84-1.76-1.69-2.63-2.05.03.11.04.18.08.23,2.02,2.44,3.19,5.31,4.16,8.28,1.1,3.37,1.79,6.84,2.52,10.3.01.05,0,.12-.01.26-.22-.06-.42-.12-.6-.19-4.93-1.84-8.05-5.34-9.48-10.39-.78-2.77-1-5.62-.78-8.48.13-1.67.42-3.31.65-4.97.03-.21.1-.42.19-.73,1.26.65,2.46,1.23,3.63,1.87,2.48,1.37,4.76,3,6.5,5.3,2.13,2.8,2.94,5.99,2.68,9.49Z"/><path class="cls-4" d="m52.39,40.95c-1.74-2.3-4.02-3.93-6.5-5.3-1.17-.64-2.37-1.22-3.63-1.87-.09.31-.16.52-.19.73-.23,1.66-.52,3.31-.65,4.97-.23,2.86,0,5.71.78,8.48,1.43,5.05,4.55,8.55,9.48,10.39.19.07.38.13.6.19.01-.14.03-.21.01-.26-.73-3.46-1.42-6.93-2.52-10.3-.97-2.97-2.14-5.84-4.16-8.28-.04-.05-.05-.12-.08-.23.88.36,1.92,1.21,2.63,2.05,1.55,1.84,2.65,3.93,3.42,6.21.83,2.46,1.29,4.97,1.44,7.56.06.89,0,1.78,0,2.67.19-.17.27-.36.35-.56.87-2.25,1.49-4.55,1.68-6.96.26-3.5-.55-6.69-2.68-9.49Zm1.5,9.39c-.03.39-.07.78-.13,1.17-.26-1.43-.61-2.81-1.07-4.16-.87-2.56-2.06-4.72-3.63-6.6-.87-1.03-2.08-1.97-3.09-2.38l-2.42-.95.87,2.46c.04.11.1.33.28.55,2,2.43,3.12,5.36,3.95,7.91.88,2.71,1.52,5.55,2.11,8.34-3.79-1.8-6.23-4.77-7.44-9.05-.71-2.51-.96-5.23-.74-8.07.09-1.14.27-2.33.44-3.47.03-.19.05-.38.09-.57.75.38,1.48.75,2.21,1.15,2.76,1.52,4.72,3.09,6.13,4.97,1.9,2.51,2.7,5.34,2.45,8.69Z"/><path class="cls-4" d="m56.07,82.01c-.22-.65-.68-1.18-1.31-1.48-.09-.05-.19-.09-.29-.12v-12.68l-1.69,3.18v9.51c-.63.22-1.16.68-1.47,1.3-.3.62-.35,1.31-.13,1.97.22.66.68,1.18,1.31,1.49.35.18.74.26,1.14.26.99,0,1.88-.55,2.31-1.44.31-.62.35-1.32.13-1.97Zm-1.64,1.23c-.15.31-.46.5-.8.5-.14,0-.27-.03-.4-.09-.21-.11-.37-.29-.45-.51-.08-.22-.06-.47.05-.68.15-.31.46-.5.8-.5.14,0,.27.03.39.09.21.11.37.29.45.52.08.23.06.47-.04.68Z"/><path class="cls-4" d="m51.5,91.41c-.22-.65-.69-1.18-1.31-1.49-.1-.05-.19-.09-.29-.12v-23.02s-1.69-.06-1.69-.06v23.07c-.63.22-1.16.67-1.47,1.3-.3.62-.35,1.32-.12,1.97.22.65.68,1.18,1.3,1.49.36.18.74.27,1.14.27.99,0,1.88-.55,2.31-1.44.3-.62.35-1.32.13-1.97Zm-1.64,1.23c-.15.31-.46.5-.8.5-.14,0-.27-.03-.4-.09-.21-.11-.37-.29-.45-.51-.08-.23-.06-.47.05-.68.15-.31.46-.5.8-.5.13,0,.27.03.39.09.21.11.38.29.45.52.08.22.06.47-.04.68Z"/><path class="cls-3" d="m73.85,44.56c-3.62.77-7.2,1.71-10.49,3.48-3.17,1.71-5.76,4.03-7.58,7.18-2.08,3.63-2.91,7.59-2.96,11.71-.03,2.14-.04,4.27-.04,6.41h1.65c0-1.57,0-3.14,0-4.7,0-.44.17-.58.58-.61.98-.06,1.97-.13,2.94-.24,3.73-.42,7.3-1.37,10.6-3.22.5-.28.98-.58,1.45-.89,1.12-.76,2.15-1.61,3.08-2.55,1.67-1.69,3.02-3.67,4.1-5.92.3-.63.57-1.25.8-1.9.54-1.41.95-2.86,1.29-4.32.21-.87.39-1.75.56-2.62.21-1.07.41-2.13.6-3.17-2.19.45-4.39.89-6.58,1.36Zm-18.73,19.07s3.84-12.11,17.94-14.83c0,0-10.29,5.9-17.94,14.83Z"/><path class="cls-4" d="m49.66,65.41c-.91-3.12-1.35-4.7-3.11-7.18-2.66-3.74-7.15-6.82-11.65-8.18-3.28-.98-6.61-.87-10.01-.57.07.17.11.26.16.36,2.83,5,6.24,9.54,10.75,13.15,2.91,2.32,6.12,3.98,9.93,4.18,1.38.07,2.74-.02,4.15-.42.01-.24-.07-.78-.23-1.34Zm-12.55-8.58s7.18,1.09,10.95,8.97c0,0-5.36-4.94-10.95-8.97Z"/><path class="cls-1" d="m83.25,38.51c-10.51-3.51-20.09-8.89-29.21-15.06-2.54-1.72-4.1-1.55-6.56.15-8.84,6.12-18.42,10.9-28.51,14.64.84-5.39.92-10.78.26-16.21-.28-2.33-.83-3.21-3.33-2.35-.97.33-2.68,1.94-3.45-.26-.7-2.01.66-2.93,2.4-3.64C26.05,11.22,37.24,6.64,48.4,1.98c1.67-.7,3.08-.76,4.76-.05,11.16,4.66,22.35,9.24,33.55,13.81,1.66.68,3.24,1.45,2.55,3.54-.74,2.23-2.39.62-3.38.28-2.49-.85-2.53.56-2.53,2.26-.03,5.57-.06,11.13-.1,16.7ZM55.07,7.79c3.17,8.53,8.36,13.9,15.4,17.62q6.61,3.49,7.16-3.73c.14-1.9,1.36-3.96-1.69-5.14-6.73-2.6-13.32-5.56-20.87-8.75Zm-8.34.02c-7.63,3.22-14.5,6.11-21.35,9.01-1.19.51-1.58,1.44-1.36,2.71.48,2.81.91,5.62,1.39,8.65,9.92-3.61,17.34-9.43,21.32-20.37Z"/><path class="cls-2" d="m44.96,100.05c4.35,1.74,8.63,2.53,13.73.28,0,0,34.83-17.11,37.58-56.3.16-2.35-.24-3.29-2.6-3.84-26.28-6.09-39.88-17.94-39.88-17.94-2.28-1.55-3.69-1.39-5.91.14-7.96,5.51-16.6,9.81-25.68,13.19-4.52,1.48-8.97,3.26-13.59,4.34-2.98.7-3.4,2.03-2.98,4.67,0,0,3.52,41.17,39.33,55.46Z"/><path class="cls-1" d="m86.11,64.84s-7.95,18.68-25.41,29.24c0,0,7.88-6.81,13.1-15.21l-8.32,1.69s8.54-4.09,11.64-6.99c3.1-2.91,2.83-3.97,2.83-3.97l-9.84,2.54s12.03-5.18,16-7.31Z"/><path class="cls-1" d="m15.81,64.84s7.95,18.68,25.41,29.24c0,0-7.88-6.81-13.1-15.21l8.32,1.69s-8.54-4.09-11.64-6.99c-3.1-2.91-2.83-3.97-2.83-3.97l9.84,2.54s-12.03-5.18-16-7.31Z"/><path class="cls-1" d="m95.33,90.7s8.26,4.25-.12,7.24c-7.5,2.68-12.58,2.24-22.7.35,0,0,5.22,4.25,13.51,4.55,10.75.39,17.65-1.95,17.49-7.13-.14-4.68-8.18-5-8.18-5Z"/><path class="cls-1" d="m86.1,90.85s5.68,2.36.84,5.15c-4.33,2.49-7.55,2.58-14.09,2.03,0,0,3.79,2.6,8.99,2.16,6.75-.57,10.74-2.77,9.99-6.44-.69-3.31-5.73-2.9-5.73-2.9Z"/><path class="cls-1" d="m10.3,90.7s-8.26,4.25.12,7.24c7.5,2.68,12.58,2.24,22.7.35,0,0-5.22,4.25-13.51,4.55-10.75.39-17.65-1.95-17.49-7.13.14-4.68,8.18-5,8.18-5Z"/><path class="cls-1" d="m19.53,90.85s-5.68,2.36-.84,5.15c4.33,2.49,7.55,2.58,14.09,2.03,0,0-3.79,2.6-8.99,2.16-6.75-.57-10.74-2.77-9.99-6.44.69-3.31,5.73-2.9,5.73-2.9Z"/></svg>